<svg width="77" height="64" viewBox="0 0 77 64" fill="none" xmlns="http://www.w3.org/2000/svg">
<g clip-path="url(#clip0_323_326)">
<path d="M47.4707 7.7318C47.9754 7.81555 48.5925 7.82657 49.1324 8.03153C50.0713 8.38855 51.0212 8.78084 51.8674 9.31197C56.4338 12.1858 60.187 15.8993 63.1666 20.4018C63.8278 21.3979 64.2289 22.4161 63.8145 23.7869C63.3297 24.2056 62.7324 24.7213 62.0515 25.3098C59.625 22.2662 57.776 18.9318 54.933 16.415C52.1143 13.9202 49.095 11.6921 45.765 9.7902C46.3424 9.09378 46.8515 8.47891 47.4707 7.7318ZM43.4465 11.8751C43.9909 12.0558 44.4404 12.177 44.868 12.3555C46.8228 13.1643 48.392 14.5615 50.1021 15.7516C54.2234 18.6188 57.1214 22.577 59.9225 26.6277C59.9908 26.7268 59.9776 26.8789 60.0129 27.064C58.8735 28.1263 57.765 29.2745 56.2862 30.2222C53.463 22.7026 48.2002 17.6822 40.9561 14.5638C41.5424 13.431 42.5275 12.8117 43.4465 11.8751ZM12.9121 61.0871C12.0438 60.2012 11.3936 59.5246 10.7281 58.8679C9.53356 57.6844 8.31924 56.523 7.12916 55.3351C6.0691 54.275 6.08012 54.2662 4.64982 53.8056C4.96938 51.2866 5.60629 49.0012 6.35561 47.6833C9.0972 47.9786 12.4405 49.0585 14.5077 50.4095C14.9286 50.6827 15.2856 51.1566 15.5038 51.6194C16.0746 52.8359 16.6101 54.0745 17.0509 55.3439C17.5556 56.8007 17.9721 58.2905 18.3666 59.7825C18.4768 60.2012 18.371 60.6794 18.3622 61.2568C16.4382 61.1951 14.6355 61.14 12.9121 61.0871ZM65.9324 19.9059C62.144 14.0767 57.3088 9.24365 51.1225 5.93566C51.1335 5.77698 51.1159 5.69764 51.1468 5.64695C51.2151 5.53235 51.2856 5.40673 51.3892 5.3296C54.4393 3.01775 57.8597 2.01279 61.6283 2.80398C65.3462 3.58414 67.9446 5.82326 68.901 9.561C69.8884 13.4155 68.8548 16.8602 66.241 19.8398C66.2101 19.875 66.1264 19.8662 65.9324 19.9059ZM46.7787 21.2635C45.7429 22.4954 17.9192 47.3329 16.1385 48.5935C15.4245 48.2343 14.6597 47.8354 13.8818 47.4629C13.0333 47.053 12.1804 46.6563 11.3187 46.2772C10.5429 45.9356 9.63054 45.9048 8.7512 45.1929C11.2239 42.6651 13.7341 40.3599 16.1826 37.9951C18.6531 35.6106 21.1391 33.2436 23.6162 30.8657C26.1418 28.4436 28.6564 26.0084 31.1931 23.5952C33.6724 21.237 36.0966 18.8216 38.5672 16.5759C42.1771 17.6756 45.1391 19.3814 46.7787 21.2635ZM54.0338 32.1726C52.7975 33.5808 22.717 59.9632 21.3264 60.8557C20.8526 59.1698 20.4713 57.4794 19.8983 55.8552C19.2966 54.1516 18.5143 52.5119 17.8289 50.8855C18.0228 50.6365 18.1242 50.458 18.2719 50.3257C28.3721 41.334 38.479 32.3445 48.5837 23.3571C48.6322 23.3131 48.7027 23.2888 48.7644 23.2712C48.8239 23.2558 48.89 23.2602 49.1413 23.2469C51.4575 25.7836 53.3066 28.6772 54.0338 32.1726ZM1.93688 53.237C1.33963 55.5863 0.722549 57.9312 0.149547 60.2872C-0.214089 61.7814 0.0966532 62.3698 1.52916 62.6144C3.58315 62.967 5.65258 63.2998 7.73081 63.4321C11.1534 63.648 14.5914 63.659 18.0184 63.8442C19.2239 63.9103 20.3964 63.4563 21.6085 63.7472C21.873 63.8089 22.2608 63.5929 22.5165 63.4034C23.0542 63.0023 23.5501 62.5417 24.0548 62.0965C37.5688 50.2332 51.0829 38.3698 64.5969 26.5065C65.0002 26.1516 65.3661 25.7153 65.8333 25.4728C66.8294 24.9527 67.3716 24.2784 67.2834 23.0795C67.2548 22.7026 67.6537 22.2442 67.9468 21.9026C69.1831 20.4547 70.1661 18.8679 70.8757 17.0982C71.9115 14.5087 72.09 11.8574 71.4509 9.16871C70.23 4.02712 65.8377 0.368722 60.2002 0.027124C56.4272 -0.202077 53.0201 0.930701 49.9897 3.17863C49.56 3.49599 49.0641 3.81996 48.8151 4.26293C48.4867 4.84255 48.1363 5.23043 47.4531 5.26569C47.3253 5.2723 47.1754 5.31638 47.0763 5.39571C45.9302 6.2993 44.7137 7.13015 43.6625 8.13511C31.7352 19.5357 19.8322 30.9626 7.92475 42.3808C7.53467 42.7555 7.14238 43.1235 6.75891 43.5026C6.4107 43.8442 6.03825 44.069 5.51373 44.0447C4.69831 44.0073 4.295 44.556 4.09886 45.2436C3.7264 46.5373 3.40464 47.8464 3.06525 49.1489C2.71043 50.5175 2.35781 51.8861 2.00299 53.2546C1.98095 53.2502 1.95891 53.2436 1.93688 53.237Z" fill="white"/>
<path d="M76.9054 20.8679C76.9164 20.7225 76.9495 20.5219 76.9407 20.3213C76.9208 19.8916 76.5109 19.334 76.0878 19.3296C75.7197 19.3274 75.3186 19.4773 74.9947 19.6646C74.7941 19.7814 74.7082 20.0966 74.5737 20.3236C73.7297 21.7671 72.8922 23.215 72.0415 24.6541C71.8388 25.0001 71.5655 25.3065 71.3715 25.6569C71.0718 26.1968 71.16 26.7786 71.5478 27.1291C71.993 27.5346 72.6696 27.5346 73.1985 27.0938C73.452 26.8822 73.7208 26.6486 73.8839 26.3687C74.8602 24.6894 75.8101 22.9946 76.7622 21.3021C76.8261 21.1875 76.8481 21.0486 76.9054 20.8679Z" fill="white"/>
<path d="M4.97147 39.1472C5.11252 38.4155 4.84805 37.8668 4.361 37.6838C3.93566 37.5252 3.42216 37.6684 3.10921 38.0761C2.90425 38.3384 2.74337 38.6381 2.56486 38.9202C1.81995 40.1103 1.06183 41.2938 0.334555 42.4949C-0.0048392 43.0546 0.158246 43.7334 0.660726 44.1059C1.09048 44.4254 1.68772 44.4012 2.15274 44.0398C2.25852 43.9582 2.37092 43.8789 2.45466 43.7775C2.58249 43.6232 2.7015 43.4579 2.79847 43.2838C3.45301 42.1158 4.10756 40.9456 4.74447 39.7687C4.87229 39.5373 4.9296 39.2684 4.97147 39.1472Z" fill="white"/>
</g>
<defs>
<clipPath id="clip0_323_326">
<rect width="76.9587" height="64" fill="white"/>
</clipPath>
</defs>
</svg>
