<svg width="1494" height="99" viewBox="0 0 1494 99" fill="none" xmlns="http://www.w3.org/2000/svg">
<rect y="16.1997" width="65.7479" height="65.7479" fill="#AFDDEF"/>
<path d="M529.669 81.0343C521.275 81.0343 512.963 79.3809 505.208 76.1686C497.452 72.9562 490.406 68.2478 484.47 62.3121C478.534 56.3765 473.826 49.3298 470.614 41.5745C467.401 33.8192 465.748 25.5071 465.748 17.1128L529.669 17.1128L529.669 81.0343Z" fill="#8FE7DC"/>
<path d="M985.372 49.0736C985.372 61.6818 975.152 71.9028 962.543 71.9028C949.935 71.9028 939.714 61.6818 939.714 49.0736C939.714 36.4655 949.935 26.2445 962.543 26.2445C975.152 26.2445 985.372 36.4655 985.372 49.0736Z" stroke="#00A8E2" stroke-width="20.0896"/>
<path d="M1476.78 32.2853L1461.28 16.7883L1444.49 33.5767L1427.7 16.7883L1412.21 32.2853L1428.99 49.0736L1412.21 65.8619L1427.7 81.3588L1444.49 64.5705L1461.28 81.3588L1476.78 65.8619L1459.99 49.0736L1476.78 32.2853Z" fill="#FFC600"/>
</svg>
