<svg width="237" height="36" viewBox="0 0 237 36" fill="none" xmlns="http://www.w3.org/2000/svg">
<path d="M7.58993 7.86624V13.3114H10.626C13.1316 13.3114 14.3867 12.4043 14.3867 10.5897C14.3867 8.77248 13.156 7.86624 10.6944 7.86624H7.58993ZM23.3208 24.8621C23.5497 25.1832 23.6014 25.4469 23.4761 25.6538C23.3503 25.859 23.0915 25.9624 22.6996 25.9624H15.9037C15.3968 25.9624 15.0177 25.7679 14.7641 25.3777L10.5558 19.3452H7.58993V25.0323C7.58993 25.6538 7.2785 25.9624 6.65905 25.9624H0.965961C0.321274 25.9624 0 25.6538 0 25.0323V2.76435C0 2.14409 0.321274 1.83203 0.965961 1.83203H11.2805C14.6841 1.83203 17.336 2.57968 19.2328 4.07327C21.1309 5.56772 22.0785 7.73842 22.0785 10.5897C22.0785 14.0137 20.7451 16.4383 18.0765 17.8627L23.3208 24.8621Z" fill="#ff7602"/>
<path d="M29.2885 15.6574H35.5317C35.4162 14.8747 35.0766 14.2471 34.5127 13.7769C33.9493 13.3071 33.2563 13.0724 32.4281 13.0724C31.6221 13.0724 30.9274 13.3071 30.3413 13.7769C29.7544 14.2471 29.4044 14.8747 29.2885 15.6574ZM32.6351 26.6182C29.5756 26.6182 27.1217 25.7757 25.2698 24.0841C23.4187 22.3965 22.4908 20.1719 22.4908 17.4156C22.4908 14.6571 23.3725 12.4394 25.1329 10.7615C26.892 9.08455 29.2316 8.245 32.1517 8.245C35.2776 8.245 37.6758 9.07857 39.3442 10.7449C41.0118 12.4116 41.8456 14.6109 41.8456 17.3455V18.0696C41.8456 18.6676 41.5008 18.9664 40.8112 18.9664H29.2543C29.6919 20.6669 30.8405 21.5163 32.7053 21.5163C33.4377 21.5163 34.0606 21.2983 34.5662 20.8623C35.0248 20.5173 35.4389 20.3442 35.8064 20.3442H40.6392C40.9848 20.3442 41.2313 20.4365 41.3806 20.6208C41.5303 20.8037 41.5585 21.0457 41.4674 21.3445C40.8916 22.9988 39.8345 24.2915 38.2927 25.2225C36.7505 26.1527 34.8635 26.6182 32.6351 26.6182Z" fill="#ff7602"/>
<path d="M52.2649 26.4464C49.8954 26.4464 48.0148 25.7739 46.6244 24.4295C45.2337 23.0856 44.5372 21.2983 44.5372 19.0682C44.5372 16.1964 45.513 13.8299 47.4698 11.967C49.4226 10.1071 51.8859 9.17517 54.8526 9.17517C56.8291 9.17517 58.4607 9.6642 59.7496 10.641C61.0364 11.6173 61.7735 12.9673 61.9583 14.6904C62.0024 14.9897 61.8638 15.1393 61.5442 15.1393H59.3697C59.1627 15.1393 59.0348 15.0239 58.989 14.7939C58.8294 13.8534 58.34 13.1015 57.5251 12.5368C56.7071 11.973 55.689 11.6917 54.4728 11.6917C52.4711 11.6917 50.8104 12.3598 49.4868 13.6914C48.1645 15.0239 47.5048 16.7137 47.5048 18.7595C47.5048 20.3215 47.963 21.5753 48.8832 22.5157C49.8034 23.4583 51.0577 23.929 52.6448 23.929C53.8632 23.929 54.9592 23.6485 55.9363 23.0856C56.9159 22.5226 57.6213 21.7805 58.0598 20.8618C58.1497 20.6319 58.3127 20.5173 58.5415 20.5173H60.7498C61.0488 20.5173 61.1399 20.6669 61.027 20.9653C60.381 22.6658 59.2602 24.0051 57.6624 24.9818C56.0642 25.9582 54.2653 26.4464 52.2649 26.4464Z" fill="white"/>
<path d="M77.2391 9.62328C77.4688 9.69168 77.5497 9.85455 77.4812 10.1072L76.9653 11.8286C76.8485 12.1056 76.6539 12.2091 76.3784 12.1407C75.7778 11.9338 75.0206 11.8286 74.1004 11.8286C72.4448 11.8286 71.001 12.3916 69.772 13.5197C68.5403 14.6444 67.7866 16.1153 67.5106 17.9316L66.3727 25.5501C66.3269 25.8258 66.1674 25.9626 65.8884 25.9626H63.7841C63.4855 25.9626 63.3593 25.8258 63.4068 25.5501L65.1997 13.6565C65.3605 12.3916 64.9131 11.7619 63.8543 11.7619C63.5788 11.7619 63.1873 11.8077 62.6838 11.9004C62.5435 11.9227 62.4284 11.9051 62.3356 11.8487C62.2445 11.7893 62.2094 11.6918 62.2338 11.5533L62.4742 9.96697C62.4969 9.71605 62.6235 9.55489 62.8541 9.48564C63.4979 9.2796 64.1649 9.17529 64.8557 9.17529C65.8666 9.17529 66.6482 9.4399 67.2009 9.96697C67.7528 10.497 68.0296 11.2545 68.0296 12.2441C69.7544 10.1982 71.9037 9.17529 74.4786 9.17529C75.4689 9.17529 76.3874 9.32448 77.2391 9.62328Z" fill="white"/>
<path d="M78.241 16.8628H89.5198C89.7295 15.3693 89.418 14.1103 88.5898 13.0874C87.7625 12.0662 86.5424 11.5528 84.9334 11.5528C83.3459 11.5528 81.9248 12.0478 80.6726 13.0357C79.4192 14.0253 78.6085 15.2991 78.241 16.8628ZM82.8283 26.4464C80.4822 26.4464 78.6085 25.7752 77.2058 24.4295C75.803 23.0856 75.1014 21.2983 75.1014 19.0682C75.1014 16.196 76.0674 13.8299 78.0006 11.967C79.9312 10.1071 82.3449 9.17517 85.244 9.17517C87.5888 9.17517 89.4116 9.89418 90.7117 11.3292C92.0109 12.7659 92.6042 14.6443 92.4892 16.9663C92.4892 17.2659 92.3963 17.8396 92.2119 18.6894C92.1435 18.8959 91.9942 18.9993 91.7645 18.9993H78.034C78.0113 20.4929 78.4755 21.7121 79.4307 22.6551C80.3843 23.5968 81.6446 24.0675 83.2073 24.0675C85.3009 24.0675 86.8654 23.4233 87.8993 22.1383C88.0606 21.9758 88.245 21.8963 88.4512 21.8963H90.7284C91.0496 21.8963 91.1433 22.0558 91.0056 22.3785C90.2223 23.6203 89.1006 24.6082 87.6405 25.3422C86.1809 26.0783 84.5754 26.4464 82.8283 26.4464Z" fill="white"/>
<path d="M100.734 23.9991C102.572 23.9991 104.165 23.3091 105.511 21.9297C106.858 20.5506 107.53 18.8861 107.53 16.9321C107.53 15.3919 107.069 14.1227 106.149 13.1225C105.229 12.1239 104.033 11.6233 102.562 11.6233C100.699 11.6233 99.088 12.3124 97.7327 13.6914C96.3736 15.0704 95.6969 16.7376 95.6969 18.6894C95.6969 20.2309 96.1614 21.4992 97.0923 22.4991C98.0249 23.4994 99.2373 23.9991 100.734 23.9991ZM112.325 23.7229C112.622 23.6545 112.772 23.7563 112.772 24.0324L112.737 25.6183C112.737 25.8714 112.611 26.0326 112.36 26.101C111.6 26.3301 110.887 26.4464 110.219 26.4464C109.208 26.4464 108.42 26.1933 107.857 25.6872C107.293 25.1832 106.999 24.4706 106.978 23.5494C105.115 25.482 102.894 26.4464 100.318 26.4464C98.0643 26.4464 96.2346 25.7462 94.8336 24.3428C93.4308 22.9411 92.7297 21.1504 92.7297 18.9664C92.7297 16.231 93.7307 13.915 95.7307 12.0187C97.7327 10.1237 100.124 9.17517 102.906 9.17517C105.253 9.17517 107.057 10.072 108.323 11.8653L108.598 10.072C108.644 9.79501 108.806 9.65822 109.082 9.65822H111.185C111.438 9.65822 111.564 9.79501 111.564 10.072L109.772 22.0002C109.587 23.239 109.989 23.8606 110.98 23.8606C111.393 23.8606 111.841 23.8148 112.325 23.7229Z" fill="white"/>
<path d="M123.749 26.2767C123.299 26.2767 123.074 26.0519 123.074 25.6022V22.2286C123.074 21.7793 123.299 21.554 123.749 21.554H127.267V6.14276H123.749C123.299 6.14276 123.074 5.91834 123.074 5.46821V2.09502C123.074 1.64575 123.299 1.42004 123.749 1.42004H136.364C136.838 1.42004 137.075 1.64575 137.075 2.09502V5.46821C137.075 5.91834 136.838 6.14276 136.364 6.14276H132.846V21.554H136.364C136.838 21.554 137.075 21.7793 137.075 22.2286V25.6022C137.075 26.0519 136.838 26.2767 136.364 26.2767H123.749Z" fill="#ff7602"/>
<path d="M152.532 8.48657C154.854 8.48657 156.726 9.20302 158.147 10.6346C159.569 12.0675 160.279 13.9672 160.279 16.3341V25.6022C160.279 26.0519 160.054 26.2767 159.604 26.2767H155.624C155.15 26.2767 154.913 26.0519 154.913 25.6022V17.0442C154.913 15.837 154.576 14.8666 153.9 14.1326C153.225 13.3991 152.319 13.0319 151.182 13.0319C149.997 13.0319 149.044 13.3811 148.322 14.0792C147.599 14.7777 147.238 15.707 147.238 16.8667V25.6022C147.238 26.0519 147.012 26.2767 146.562 26.2767H142.583C142.132 26.2767 141.907 26.0519 141.907 25.6022V14.452C141.907 13.5286 141.445 13.0674 140.521 13.0674C140.426 13.0674 140.166 13.1029 139.74 13.1738C139.218 13.1738 138.958 12.9844 138.958 12.6053V9.69376C138.958 9.2915 139.136 9.0316 139.491 8.91276C140.225 8.62849 141.078 8.48657 142.05 8.48657C144.086 8.48657 145.508 9.23209 146.314 10.7235C147.806 9.23209 149.879 8.48657 152.532 8.48657Z" fill="#ff7602"/>
<path d="M173.534 22.5838C174.86 22.5838 175.938 22.1221 176.767 21.1988C177.596 20.2754 178.011 19.0802 178.011 17.6127C178.011 16.1447 177.59 14.9491 176.75 14.0258C175.908 13.1029 174.836 12.6412 173.534 12.6412C172.207 12.6412 171.111 13.1088 170.246 14.0437C169.381 14.979 168.949 16.1687 168.949 17.6127C168.949 19.0802 169.376 20.2754 170.229 21.1988C171.082 22.1221 172.183 22.5838 173.534 22.5838ZM182.702 9.05468C183.152 9.05468 183.377 9.27996 183.377 9.72924V26.7025C183.377 29.2117 182.5 31.2418 180.748 32.7927C178.994 34.3427 176.696 35.1186 173.854 35.1186C171.295 35.1186 169.157 34.5265 167.439 33.3433C165.721 32.1592 164.685 30.5848 164.33 28.6201C164.211 28.1704 164.424 27.9456 164.97 27.9456H168.949C169.281 27.9456 169.541 28.123 169.731 28.4782C169.968 29.1887 170.454 29.7503 171.188 30.1646C171.922 30.5788 172.799 30.7865 173.818 30.7865C175.097 30.7865 176.116 30.4189 176.874 29.6854C177.632 28.9514 178.011 27.9691 178.011 26.7379V25.2469C176.661 26.2647 175.014 26.7739 173.072 26.7739C170.347 26.7739 168.108 25.9159 166.355 24.1992C164.602 22.4833 163.726 20.2878 163.726 17.6127C163.726 14.9376 164.602 12.7476 166.355 11.0433C168.108 9.33853 170.347 8.48657 173.072 8.48657C175.038 8.48657 176.72 9.0316 178.118 10.1199V9.72924C178.118 9.27996 178.343 9.05468 178.793 9.05468H182.702Z" fill="#ff7602"/>
<path d="M193.256 26.8449C191.597 26.8449 190.277 26.4661 189.294 25.7086C188.31 24.9516 187.819 23.9214 187.819 22.6193V0.674552C187.819 0.225278 188.044 0 188.494 0H192.474C192.924 0 193.149 0.225278 193.149 0.674552V20.915C193.149 21.8148 193.552 22.2641 194.357 22.2641C194.76 22.2641 195.115 22.2286 195.423 22.1576C195.897 22.1106 196.146 22.2995 196.17 22.7262L196.525 25.6732C196.572 26.0758 196.383 26.3238 195.956 26.4187C195.009 26.7029 194.108 26.8449 193.256 26.8449Z" fill="#ff7602"/>
<path d="M206.44 6.21418C206.203 6.21418 206.031 6.13766 205.924 5.98334C205.818 5.82988 205.824 5.64607 205.942 5.43276L208.288 1.06527C208.453 0.733976 208.714 0.568115 209.069 0.568115H213.262C213.523 0.568115 213.695 0.639076 213.778 0.780997C213.861 0.923346 213.819 1.12468 213.653 1.38502L210.633 5.82347C210.443 6.08423 210.171 6.21418 209.815 6.21418H206.44ZM203.987 16.1922H212.481C212.433 15.08 212.042 14.1741 211.308 13.4757C210.573 12.778 209.614 12.4283 208.43 12.4283C207.269 12.4283 206.28 12.778 205.462 13.4757C204.645 14.1741 204.153 15.08 203.987 16.1922ZM208.607 26.8449C205.693 26.8449 203.335 26.0049 201.536 24.3236C199.735 22.6432 198.835 20.4298 198.835 17.6837C198.835 14.9141 199.706 12.6891 201.447 11.0079C203.188 9.32703 205.468 8.48662 208.288 8.48662C211.13 8.48662 213.387 9.31592 215.057 10.9724C216.727 12.6297 217.562 14.8196 217.562 17.5414C217.562 17.6837 217.556 17.891 217.545 18.1629C217.532 18.4356 217.527 18.631 217.527 18.749C217.456 19.1516 217.207 19.3526 216.781 19.3526H204.023C204.307 20.4178 204.87 21.2582 205.711 21.8738C206.552 22.4898 207.553 22.7967 208.714 22.7967C210.016 22.7967 210.988 22.4419 211.628 21.7314C211.935 21.495 212.219 21.3766 212.481 21.3766H216.461C216.721 21.3766 216.905 21.442 217.012 21.572C217.118 21.7024 217.124 21.8738 217.029 22.0867C216.413 23.555 215.359 24.7143 213.867 25.5667C212.374 26.4187 210.62 26.8449 208.607 26.8449Z" fill="#ff7602"/>
<path d="M228.791 26.8448C226.303 26.8448 224.278 26.3532 222.715 25.3713C221.151 24.389 220.239 23.0224 219.978 21.2701C219.907 20.7969 220.132 20.5597 220.653 20.5597L224.136 20.5952C224.443 20.5952 224.704 20.761 224.917 21.0923C225.415 22.3709 226.706 23.01 228.791 23.01C229.667 23.01 230.372 22.868 230.905 22.5838C231.438 22.2995 231.705 21.9212 231.705 21.4475C231.705 20.832 231.326 20.3883 230.568 20.116C229.81 19.8441 228.886 19.6428 227.796 19.5119C226.706 19.3824 225.616 19.1871 224.527 18.9263C223.437 18.666 222.513 18.1334 221.755 17.3284C220.996 16.5239 220.618 15.4347 220.618 14.0617C220.618 12.3808 221.34 11.0317 222.785 10.0135C224.23 8.99569 226.137 8.48657 228.507 8.48657C230.733 8.48657 232.599 8.95423 234.104 9.88911C235.608 10.8244 236.479 12.0615 236.716 13.6C236.787 14.0736 236.573 14.31 236.076 14.31H232.558C232.25 14.31 232.013 14.1681 231.847 13.8838C231.634 13.3636 231.225 12.943 230.621 12.6237C230.017 12.3039 229.336 12.144 228.578 12.144C227.748 12.144 227.079 12.2804 226.57 12.5523C226.06 12.825 225.806 13.1858 225.806 13.6355C225.806 14.2746 226.191 14.7486 226.961 15.056C227.731 15.3638 228.667 15.5946 229.769 15.7481C230.87 15.9024 231.965 16.1097 233.055 16.3696C234.145 16.6304 235.075 17.163 235.845 17.9675C236.615 18.7729 237 19.8497 237 21.1988C237 22.927 236.265 24.3005 234.796 25.3179C233.327 26.3357 231.326 26.8448 228.791 26.8448Z" fill="#ff7602"/>
</svg>
